<svg width="375" height="363" viewBox="0 0 375 363" fill="none" xmlns="http://www.w3.org/2000/svg">
<path d="M309.881 182.406C309.881 109.308 250.585 50.0511 177.44 50.0511C104.296 50.0511 45 109.308 45 182.406C45 255.503 104.296 314.76 177.44 314.76C250.585 314.76 309.881 255.503 309.881 182.406Z" fill="#7B4AE2" fill-opacity="0.2"/>
<g filter="url(#filter0_d_21_5377)">
<circle cx="312.18" cy="193.397" r="18.3945" fill="#090E16"/>
</g>
<g clip-path="url(#clip0_21_5377)">
<path fill-rule="evenodd" clip-rule="evenodd" d="M319.94 184.2H304.42C303.626 184.2 302.983 184.843 302.983 185.637V201.157C302.983 201.951 303.626 202.594 304.42 202.594H319.94C320.734 202.594 321.377 201.951 321.377 201.157V185.637C321.377 184.843 320.734 184.2 319.94 184.2ZM313.798 200.589V198.604C314.158 198.906 314.549 199.133 314.971 199.283C315.393 199.434 315.82 199.51 316.25 199.51C316.502 199.51 316.723 199.487 316.911 199.442C317.099 199.396 317.256 199.333 317.383 199.253C317.509 199.172 317.603 199.077 317.665 198.967C317.727 198.858 317.758 198.739 317.758 198.611C317.758 198.437 317.708 198.282 317.609 198.145C317.51 198.009 317.374 197.883 317.203 197.767C317.031 197.651 316.827 197.54 316.591 197.432C316.355 197.325 316.101 197.215 315.828 197.104C315.133 196.814 314.614 196.461 314.273 196.043C313.932 195.625 313.761 195.121 313.761 194.53C313.761 194.067 313.854 193.669 314.04 193.336C314.226 193.003 314.48 192.729 314.801 192.514C315.121 192.299 315.493 192.141 315.915 192.04C316.337 191.939 316.784 191.888 317.255 191.888C317.719 191.888 318.13 191.916 318.487 191.972C318.845 192.027 319.175 192.113 319.477 192.229V194.083C319.329 193.98 319.166 193.889 318.99 193.81C318.814 193.732 318.633 193.667 318.447 193.615C318.261 193.563 318.076 193.525 317.892 193.5C317.707 193.476 317.533 193.463 317.367 193.463C317.14 193.463 316.933 193.485 316.746 193.528C316.56 193.572 316.403 193.633 316.275 193.711C316.146 193.79 316.047 193.884 315.977 193.993C315.906 194.103 315.871 194.226 315.871 194.362C315.871 194.511 315.911 194.645 315.989 194.762C316.068 194.88 316.18 194.992 316.324 195.097C316.469 195.203 316.645 195.306 316.852 195.407C317.059 195.509 317.293 195.613 317.553 195.721C317.909 195.869 318.229 196.028 318.512 196.195C318.796 196.363 319.039 196.552 319.242 196.763C319.444 196.973 319.6 197.214 319.707 197.485C319.815 197.756 319.868 198.071 319.868 198.431C319.868 198.927 319.774 199.343 319.586 199.68C319.398 200.017 319.142 200.29 318.819 200.499C318.497 200.708 318.121 200.858 317.693 200.949C317.265 201.04 316.813 201.085 316.337 201.085C315.848 201.085 315.384 201.044 314.943 200.961C314.503 200.878 314.121 200.754 313.798 200.589ZM313.042 193.666H310.49V200.941H308.469V193.666H305.929V192.032H313.042V193.666Z" fill="#7B4AE2" fill-opacity="0.5"/>
</g>
<g filter="url(#filter1_d_21_5377)">
<circle cx="63.3945" cy="146.491" r="18.3945" fill="#090E16"/>
</g>
<g clip-path="url(#clip1_21_5377)">
<path d="M68.712 138.293H72.39L63.195 154.154L54 138.293H57.632H61.0342L63.195 141.971L65.3098 138.293H68.712Z" fill="#7B4AE2" fill-opacity="0.2"/>
<path d="M54 138.293L63.195 154.154L72.39 138.293H68.712L63.195 147.81L57.632 138.293H54Z" fill="#7B4AE2" fill-opacity="0.2"/>
<path d="M57.6321 138.293L63.1951 147.856L68.7121 138.293H65.3099L63.1951 141.971L61.0342 138.293H57.6321Z" fill="#7B4AE2" fill-opacity="0.5"/>
</g>
<g filter="url(#filter2_d_21_5377)">
<circle cx="63.3945" cy="264.216" r="18.3945" fill="#090E16"/>
</g>
<path d="M63.195 258.664C60.743 258.664 59.2105 259.89 58.5975 262.342C59.517 261.116 60.5897 260.656 61.8157 260.962C62.5153 261.137 63.0152 261.645 63.5686 262.206C64.4701 263.122 65.5135 264.181 67.7925 264.181C70.2445 264.181 71.777 262.955 72.39 260.503C71.4705 261.729 70.3977 262.188 69.1717 261.882C68.4722 261.707 67.9723 261.2 67.4189 260.638C66.5174 259.723 65.474 258.664 63.195 258.664ZM58.5975 264.181C56.1455 264.181 54.613 265.407 54 267.859C54.9195 266.633 55.9922 266.173 57.2182 266.479C57.9178 266.654 58.4177 267.162 58.9711 267.723C59.8726 268.639 60.916 269.698 63.195 269.698C65.647 269.698 67.1795 268.472 67.7925 266.02C66.873 267.246 65.8002 267.705 64.5742 267.399C63.8747 267.224 63.3748 266.717 62.8214 266.155C61.9199 265.24 60.8765 264.181 58.5975 264.181Z" fill="#7B4AE2" fill-opacity="0.5"/>
<g filter="url(#filter3_f_21_5377)">
<circle cx="178.061" cy="181.061" r="131.061" fill="#7B4AE2" fill-opacity="0.2"/>
</g>
<g filter="url(#filter4_i_21_5377)">
<path fill-rule="evenodd" clip-rule="evenodd" d="M153.924 232.077C172.804 242.14 193.976 241.022 210.564 232.076V254.122L210.751 254.117V267.061H153.924V232.077Z" fill="#BB7D52"/>
<path fill-rule="evenodd" clip-rule="evenodd" d="M153.924 250.446C172.804 260.51 193.976 259.392 210.564 250.446V264.505L223.32 264.187L223.478 264.193C223.478 298.08 142.465 303.152 142.465 264.142L142.781 264.128L153.924 264.184V250.446Z" fill="#D08B5B"/>
<path fill-rule="evenodd" clip-rule="evenodd" d="M120.758 111.177C165.813 82.4888 223.454 92.6905 242.929 111.608C248.56 125.156 248.957 138.225 247.301 152.253C251.105 149.523 255.628 150.148 259.192 152.69C260.635 164.33 264.503 187.357 247.172 188.356C241.205 262.635 131.88 271.881 117.102 188.599C99.9248 188.006 104.557 164.735 105.63 153.559C109.751 150.424 114.457 152.002 117.378 153.404L120.758 111.177Z" fill="#D08B5B"/>
<path fill-rule="evenodd" clip-rule="evenodd" d="M167.069 53.4018L163.342 55.8253L161.449 53.9929C158.491 51.0968 157.071 51.6288 154.823 56.4164C153.463 59.3716 151.748 59.7265 148.79 57.7757C147.607 56.9484 146.128 56.239 145.536 56.239C144.235 56.239 142.992 58.2485 142.46 60.9083C142.046 63.0953 140.626 65.1049 139.443 65.1049C139.029 65.1049 137.491 64.5729 136.012 63.9227C133.764 62.9179 133.054 62.8587 131.812 63.3907C130.392 64.041 130.274 64.3955 130.274 68.2966C130.274 71.1339 129.86 73.3208 129.091 74.9759C127.967 77.4582 127.908 77.5174 125.127 77.5174C120.513 77.5174 118.324 79.8223 120.572 82.3642C121.756 83.6052 120.986 84.9057 118.68 85.4376C114.42 86.5015 113.178 89.2205 115.485 92.1165C117.082 94.1852 117.023 94.4809 114.479 95.6631C111.817 96.9633 111.403 98.4412 113.119 100.273C114.42 101.692 114.42 101.751 113.71 109.553C113.001 117.119 113.237 138.22 114.065 140.407C114.302 141.057 113.533 141.707 111.226 142.89C106.375 145.313 106.02 145.786 106.02 149.687C106.02 154.711 106.789 156.011 110.102 156.484C113.474 156.957 115.603 157.725 116.195 158.671C116.432 159.085 116.668 160.976 116.668 162.927C116.668 167.123 117.97 173.034 119.567 176.107C124.063 184.855 135.776 189.288 149.973 187.633C156.954 186.746 161.035 185.387 165.472 182.432C172.097 177.999 175.173 172.324 175.647 163.399C176.002 157.962 176.002 157.962 177.776 157.371C180.084 156.543 185.822 156.543 188.188 157.371C190.022 158.021 190.022 158.021 190.022 162.218C190.022 167.064 191.264 172.857 192.92 176.108C197.416 184.856 209.129 189.288 223.267 187.634C230.307 186.747 234.388 185.388 238.825 182.432C245.451 177.999 248.527 172.148 249.118 162.986C249.532 156.957 249.237 157.253 255.744 156.425C259.057 156.011 259.826 154.711 259.826 149.628C259.826 145.609 259.175 144.84 253.673 142.476L250.36 141.057V135.147C250.301 125.04 248.882 117.888 246.397 115.583C245.569 114.814 243.735 113.632 242.256 112.923C239.949 111.8 239.476 111.741 238.766 112.509C238.056 113.218 238.234 113.869 240.008 117.415C242.197 121.789 244.149 129.177 244.8 135.561L245.214 139.462L241.428 138.634C239.357 138.221 236.695 137.866 235.571 137.807C234.388 137.807 231.431 136.743 228.473 135.265C223.563 132.842 223.326 132.783 217.529 132.783C210.903 132.783 206.23 134.142 202.444 137.097C201.32 137.984 198.954 139.107 197.298 139.521C195.582 139.935 192.388 141.058 190.199 142.003C184.461 144.427 181.503 144.309 174.168 141.353C170.974 140.053 167.957 138.989 167.542 138.989C167.128 138.989 165.768 138.161 164.525 137.157C160.621 134.083 156.244 132.783 149.5 132.783C143.762 132.783 143.407 132.901 138.319 135.324C134.888 136.979 132.226 137.807 130.629 137.807C129.328 137.866 126.488 138.221 124.359 138.693C118.325 139.994 118.798 140.762 119.271 130.832C119.626 122.321 120.75 115.11 122.052 112.627C123.53 109.849 135.243 103.879 146.838 99.9786C161.213 95.191 177.362 93.3585 195.582 94.5999C211.199 95.6047 215.34 96.9048 232.614 106.185C238.648 109.436 244.267 112.036 245.569 112.214C247.699 112.509 247.876 112.391 248.527 110.617C249.947 106.539 248.822 96.2546 246.456 91.5852C244.682 88.1572 244.563 86.8567 245.569 83.3105C246.279 80.8278 246.279 80.2958 245.392 78.9956C244.563 77.7543 243.972 77.518 241.606 77.518C240.067 77.5772 237.701 77.8134 236.341 78.05C233.915 78.5228 233.856 78.5228 234.152 76.9861C235.335 71.1937 233.915 69.8932 228.177 71.3708C226.343 71.8436 224.628 72.1393 224.509 71.9619C224.332 71.7848 224.509 70.0115 224.924 68.0611C225.633 64.8693 225.574 64.3373 224.746 63.4505C223.859 62.6232 223.326 62.6232 219.895 63.2734C214.394 64.3965 212.323 63.8645 210.312 60.7907C208.242 57.7764 206.348 56.7125 204.396 57.4807C203.331 57.8944 202.208 57.7173 200.078 56.7716C197.83 55.826 196.528 55.5894 194.517 55.8848C192.447 56.2397 191.323 56.0031 189.371 54.9983C187.36 53.9935 186.235 53.8161 183.81 54.1115C181.207 54.4072 180.261 54.1706 177.244 52.693C175.351 51.7474 173.103 50.9789 172.275 50.9197C171.447 50.9197 169.14 52.0428 167.069 53.4024L167.069 53.4018V53.4018ZM161.39 148.032C168.489 150.337 170.677 153.47 170.736 161.39C170.796 165.586 170.559 166.946 169.435 169.251C165.531 177.23 154.41 181.723 141.218 180.718C131.102 179.89 125.896 177.053 123.116 170.788C121.341 166.709 121.105 156.957 122.761 153.942C124.299 151.105 127.257 149.155 132.108 147.854C135.894 146.85 137.964 146.731 147.429 146.85C155.592 147.027 159.142 147.322 161.39 148.032V148.032ZM234.743 148.032C241.842 150.337 244.03 153.47 244.09 161.39C244.149 165.586 243.912 166.946 242.788 169.251C238.884 177.23 227.763 181.723 214.571 180.718C204.455 179.89 199.25 177.053 196.469 170.788C194.695 166.709 194.458 156.957 196.114 153.942C197.652 151.105 200.61 149.155 205.461 147.854C209.247 146.85 211.317 146.731 220.782 146.85C228.946 147.027 232.495 147.322 234.743 148.032V148.032Z" fill="#A67A37"/>
<path fill-rule="evenodd" clip-rule="evenodd" d="M142.342 155.184C139.206 156.661 135.598 160.385 135.598 162.158C135.598 163.518 136.544 163.518 138.378 162.04C143.17 158.257 153.345 158.257 158.55 161.981C159.556 162.631 160.621 163.222 160.976 163.222C162.218 163.222 161.626 161.094 159.734 158.848C157.249 155.775 152.812 153.765 148.612 153.765C146.423 153.765 144.353 154.238 142.342 155.183V155.184Z" fill="#533824"/>
<path fill-rule="evenodd" clip-rule="evenodd" d="M210.962 155.184C207.827 156.661 204.219 160.385 204.219 162.158C204.219 163.518 205.165 163.518 206.999 162.04C211.79 158.257 221.965 158.257 227.171 161.981C228.177 162.631 229.242 163.222 229.597 163.222C230.839 163.222 230.247 161.094 228.354 158.848C225.87 155.775 221.433 153.765 217.233 153.765C215.044 153.765 212.974 154.238 210.963 155.183L210.962 155.184Z" fill="#533824"/>
<path fill-rule="evenodd" clip-rule="evenodd" d="M169.139 183.437C169.79 185.978 171.683 187.988 174.996 189.584C177.658 190.884 179.018 191.18 182.923 191.18C186.827 191.18 188.188 190.884 190.849 189.584C194.162 187.988 196.055 185.979 196.706 183.437L197.002 182.137H182.923H168.843L169.139 183.437Z" fill="#AF754C"/>
<path fill-rule="evenodd" clip-rule="evenodd" d="M114.065 140.407C114.302 141.057 113.533 141.707 111.226 142.89C106.451 145.274 106.032 145.771 106.02 149.506V149.687C106.02 154.711 106.789 156.011 110.102 156.484C113.474 156.957 115.604 157.725 116.196 158.671C116.432 159.085 116.669 160.976 116.669 162.926C116.669 167.123 117.97 173.034 119.567 176.107C124.063 184.855 135.776 189.288 149.973 187.633C156.953 186.746 161.035 185.387 165.472 182.432C172.098 177.999 175.173 172.325 175.647 163.4C176.002 157.962 176.002 157.962 177.776 157.37C180.084 156.543 185.822 156.543 188.188 157.37C190.021 158.021 190.021 158.021 190.021 162.218C190.021 167.064 191.264 172.857 192.92 176.108C197.416 184.855 209.129 189.288 223.267 187.633C230.307 186.747 234.388 185.387 238.825 182.432C245.45 178 248.527 172.148 249.118 162.986C249.532 156.957 249.237 157.253 255.744 156.425C259.056 156.011 259.826 154.711 259.826 149.628C259.826 145.609 259.175 144.841 253.673 142.476L250.36 141.057L245.214 139.462L241.428 138.634C239.358 138.221 236.695 137.866 235.571 137.807C234.388 137.807 231.431 136.743 228.473 135.265C223.563 132.842 223.326 132.783 217.529 132.783C210.904 132.783 206.23 134.142 202.444 137.098C201.32 137.984 198.954 139.107 197.298 139.521C195.582 139.935 192.388 141.058 190.199 142.003C184.461 144.427 181.503 144.309 174.168 141.353C170.974 140.053 167.957 138.989 167.543 138.989C167.128 138.989 165.768 138.162 164.526 137.157C160.621 134.083 156.244 132.783 149.5 132.783C143.762 132.783 143.407 132.901 138.32 135.325C134.888 136.98 132.226 137.807 130.629 137.807C129.327 137.866 126.488 138.221 124.358 138.693L114.065 140.407ZM161.39 148.032C168.488 150.337 170.677 153.47 170.736 161.39C170.795 165.587 170.559 166.946 169.435 169.251C165.531 177.23 154.41 181.723 141.218 180.717C131.102 179.89 125.896 177.053 123.116 170.788C121.341 166.709 121.105 156.957 122.761 153.942C124.299 151.105 127.257 149.155 132.108 147.855C135.894 146.85 137.964 146.732 147.429 146.85C155.592 147.027 159.142 147.323 161.39 148.032ZM234.743 148.032C241.842 150.337 244.03 153.47 244.09 161.39C244.149 165.587 243.912 166.946 242.788 169.251C238.884 177.23 227.762 181.723 214.571 180.717C204.455 179.89 199.249 177.053 196.469 170.788C194.694 166.709 194.458 156.957 196.114 153.942C197.652 151.105 200.61 149.155 205.461 147.855C209.247 146.85 211.317 146.732 220.782 146.85C228.946 147.027 232.495 147.323 234.743 148.032Z" fill="#090E16"/>
<path fill-rule="evenodd" clip-rule="evenodd" d="M166.418 207.198C167.187 212.103 170.914 217.128 175.528 219.492C178.9 221.265 185.111 221.62 188.661 220.26C193.985 218.192 198.599 212.635 199.427 207.198H166.418Z" fill="#3E291B"/>
<path d="M203.794 321.217L207.593 318.131C208.473 317.416 209.767 317.549 210.482 318.428C211.198 319.308 211.065 320.601 210.184 321.316L208.346 322.809L221.693 334.046C222.574 334.761 222.707 336.054 221.991 336.933C221.585 337.432 220.993 337.691 220.396 337.691C219.941 337.691 219.482 337.541 219.102 337.231L203.794 324.402C203.314 324.012 203.036 323.427 203.036 322.809C203.036 322.191 203.314 321.606 203.794 321.217Z" fill="#7B4AE2"/>
<path d="M220.662 302.36C221.753 302.369 222.63 303.26 222.622 304.349L222.452 335.733C222.443 336.823 221.552 337.7 220.461 337.691C220.185 337.689 219.922 337.63 219.684 337.526C218.983 337.219 218.495 336.516 218.502 335.702L218.672 304.318C218.681 303.228 219.572 302.352 220.662 302.36Z" fill="#7B4AE2"/>
<path d="M229.332 323.949L230.735 322.809L225.738 318.749C224.857 318.034 224.724 316.742 225.44 315.862C226.155 314.983 227.449 314.849 228.33 315.564L235.287 321.217C235.766 321.606 236.045 322.191 236.045 322.809C236.045 323.427 235.766 324.012 235.287 324.402L231.924 327.134C231.543 327.443 231.084 327.594 230.629 327.594C230.032 327.594 229.44 327.335 229.034 326.836C228.318 325.957 228.452 324.664 229.332 323.949Z" fill="#C83267"/>
<path fill-rule="evenodd" clip-rule="evenodd" d="M142.104 264.163C124.654 265.861 108.801 272.36 95.6087 283.192C84.2571 292.474 81.0902 299.851 72.7794 310.357C89.7126 327.91 112.483 342.783 137.314 350.998C153.877 356.443 165.176 358.2 182.922 358.2C200.67 358.2 211.968 356.443 228.532 350.998C253.582 342.993 274.684 329.876 293.705 311.048C280.677 294.246 275.315 283.234 254.323 272.887C245.509 268.496 235.157 265.334 227.23 264.514L223.497 264.178L223.319 264.174L222.912 266.974C221.137 280.324 204.397 290.161 183.514 290.161C162.633 290.161 146.187 280.441 144.057 266.915C143.643 264.222 143.466 263.987 142.105 264.163H142.104Z" fill="#090E16"/>
<path d="M217.544 312.171L219.521 310.564C219.98 310.192 220.653 310.262 221.026 310.719C221.398 311.177 221.329 311.85 220.87 312.223L219.914 313L226.861 318.851C227.32 319.223 227.389 319.896 227.016 320.354C226.805 320.614 226.497 320.748 226.186 320.748C225.949 320.748 225.711 320.67 225.512 320.509L217.544 313.829C217.294 313.626 217.149 313.322 217.149 313C217.149 312.679 217.294 312.374 217.544 312.171Z" fill="white"/>
<path d="M226.325 302.354C226.892 302.359 227.349 302.822 227.344 303.39L227.256 319.729C227.251 320.297 226.787 320.753 226.22 320.748C226.076 320.747 225.939 320.717 225.815 320.662C225.451 320.502 225.197 320.137 225.2 319.713L225.288 303.373C225.293 302.806 225.757 302.349 226.325 302.354Z" fill="white"/>
<path d="M230.837 313.594L231.568 313L228.967 310.887C228.508 310.514 228.439 309.841 228.811 309.384C229.184 308.925 229.857 308.856 230.316 309.228L233.937 312.171C234.187 312.374 234.332 312.679 234.332 313C234.332 313.322 234.187 313.627 233.937 313.829L232.187 315.252C231.988 315.413 231.75 315.491 231.513 315.491C231.202 315.491 230.894 315.357 230.682 315.097C230.31 314.639 230.379 313.966 230.837 313.594Z" fill="#7B4AE2"/>
</g>
<defs>
<filter id="filter0_d_21_5377" x="243.786" y="129.002" width="136.789" height="136.789" filterUnits="userSpaceOnUse" color-interpolation-filters="sRGB">
<feFlood flood-opacity="0" result="BackgroundImageFix"/>
<feColorMatrix in="SourceAlpha" type="matrix" values="0 0 0 0 0 0 0 0 0 0 0 0 0 0 0 0 0 0 127 0" result="hardAlpha"/>
<feOffset dy="4"/>
<feGaussianBlur stdDeviation="25"/>
<feComposite in2="hardAlpha" operator="out"/>
<feColorMatrix type="matrix" values="0 0 0 0 0 0 0 0 0 0 0 0 0 0 0 0 0 0 0.5 0"/>
<feBlend mode="normal" in2="BackgroundImageFix" result="effect1_dropShadow_21_5377"/>
<feBlend mode="normal" in="SourceGraphic" in2="effect1_dropShadow_21_5377" result="shape"/>
</filter>
<filter id="filter1_d_21_5377" x="-5" y="82.0963" width="136.789" height="136.789" filterUnits="userSpaceOnUse" color-interpolation-filters="sRGB">
<feFlood flood-opacity="0" result="BackgroundImageFix"/>
<feColorMatrix in="SourceAlpha" type="matrix" values="0 0 0 0 0 0 0 0 0 0 0 0 0 0 0 0 0 0 127 0" result="hardAlpha"/>
<feOffset dy="4"/>
<feGaussianBlur stdDeviation="25"/>
<feComposite in2="hardAlpha" operator="out"/>
<feColorMatrix type="matrix" values="0 0 0 0 0 0 0 0 0 0 0 0 0 0 0 0 0 0 0.5 0"/>
<feBlend mode="normal" in2="BackgroundImageFix" result="effect1_dropShadow_21_5377"/>
<feBlend mode="normal" in="SourceGraphic" in2="effect1_dropShadow_21_5377" result="shape"/>
</filter>
<filter id="filter2_d_21_5377" x="-5" y="199.821" width="136.789" height="136.789" filterUnits="userSpaceOnUse" color-interpolation-filters="sRGB">
<feFlood flood-opacity="0" result="BackgroundImageFix"/>
<feColorMatrix in="SourceAlpha" type="matrix" values="0 0 0 0 0 0 0 0 0 0 0 0 0 0 0 0 0 0 127 0" result="hardAlpha"/>
<feOffset dy="4"/>
<feGaussianBlur stdDeviation="25"/>
<feComposite in2="hardAlpha" operator="out"/>
<feColorMatrix type="matrix" values="0 0 0 0 0 0 0 0 0 0 0 0 0 0 0 0 0 0 0.5 0"/>
<feBlend mode="normal" in2="BackgroundImageFix" result="effect1_dropShadow_21_5377"/>
<feBlend mode="normal" in="SourceGraphic" in2="effect1_dropShadow_21_5377" result="shape"/>
</filter>
<filter id="filter3_f_21_5377" x="-3" y="0" width="362.122" height="362.122" filterUnits="userSpaceOnUse" color-interpolation-filters="sRGB">
<feFlood flood-opacity="0" result="BackgroundImageFix"/>
<feBlend mode="normal" in="SourceGraphic" in2="BackgroundImageFix" result="shape"/>
<feGaussianBlur stdDeviation="25" result="effect1_foregroundBlur_21_5377"/>
</filter>
<filter id="filter4_i_21_5377" x="72.7794" y="50.9197" width="220.926" height="311.28" filterUnits="userSpaceOnUse" color-interpolation-filters="sRGB">
<feFlood flood-opacity="0" result="BackgroundImageFix"/>
<feBlend mode="normal" in="SourceGraphic" in2="BackgroundImageFix" result="shape"/>
<feColorMatrix in="SourceAlpha" type="matrix" values="0 0 0 0 0 0 0 0 0 0 0 0 0 0 0 0 0 0 127 0" result="hardAlpha"/>
<feOffset dy="4"/>
<feGaussianBlur stdDeviation="2"/>
<feComposite in2="hardAlpha" operator="arithmetic" k2="-1" k3="1"/>
<feColorMatrix type="matrix" values="0 0 0 0 0 0 0 0 0 0 0 0 0 0 0 0 0 0 0.25 0"/>
<feBlend mode="normal" in2="shape" result="effect1_innerShadow_21_5377"/>
</filter>
<clipPath id="clip0_21_5377">
<rect width="18.3945" height="18.3945" fill="white" transform="translate(302.983 184.2)"/>
</clipPath>
<clipPath id="clip1_21_5377">
<rect width="18.39" height="18.39" fill="white" transform="translate(54 137)"/>
</clipPath>
</defs>
</svg>
